<?xml version="1.0" encoding="iso-8859-1"?>
<!-- Uploaded to: SVG Repo, www.svgrepo.com, Generator: SVG Repo Mixer Tools -->
<svg fill="#000000" height="800px" width="800px" version="1.1" id="Layer_1" xmlns="http://www.w3.org/2000/svg" xmlns:xlink="http://www.w3.org/1999/xlink" 
	 viewBox="0 0 511.999 511.999" xml:space="preserve">
<g>
	<g>
		<g>
			<path d="M97.667,385.076c-8.341,8.341-8.341,21.845,0,30.165c8.341,8.341,21.845,8.341,30.165,0
				c8.341-8.32,8.341-21.824,0-30.165C119.512,376.735,106.008,376.735,97.667,385.076z"/>
			<path d="M173.099,249.322l-30.165,30.165c-24.939,24.96-65.536,24.96-90.517,0c-5.888-5.909-14.741-7.829-22.485-4.928
				c-7.808,2.88-13.227,10.069-13.867,18.368L0.982,489.023c-0.491,6.229,1.792,12.331,6.187,16.725
				c4.011,4.032,9.429,6.251,15.083,6.251c0.533,0,1.067-0.021,1.643-0.064l196.096-15.083c8.299-0.64,15.488-6.059,18.368-13.867
				s0.96-16.576-4.928-22.485c-24.96-24.96-24.96-65.557,0-90.517l30.165-30.165l87.488-87.488l-90.496-90.496L173.099,249.322z
				 M203.265,339.818c-31.637,31.637-39.232,78.421-22.677,117.269L45.441,467.476L55.83,332.33
				c38.891,16.533,85.653,8.939,117.269-22.677l15.083-15.083l30.165,30.165L203.265,339.818z"/>
			<path d="M504.826,68.421L444.496,8.091c-8.341-8.341-21.845-8.341-30.165,0L376.08,46.341L335.994,6.256
				c-8.341-8.341-21.845-8.341-30.165,0l-85.333,85.333c-8.341,8.341-8.341,21.824,0,30.165c4.16,4.16,9.621,6.251,15.083,6.251
				c5.461,0,10.923-2.091,15.083-6.251l70.251-70.251l25.003,25.003l-55.168,55.168l90.496,90.496L504.826,98.587
				C513.168,90.245,513.168,76.763,504.826,68.421z"/>
		</g>
	</g>
</g>
</svg>