<?xml version="1.0" encoding="iso-8859-1"?>
<!-- Uploaded to: SVG Repo, www.svgrepo.com, Generator: SVG Repo Mixer Tools -->
<svg fill="#000000" height="800px" width="800px" version="1.1" id="Layer_1" xmlns="http://www.w3.org/2000/svg" xmlns:xlink="http://www.w3.org/1999/xlink" 
	 viewBox="0 0 512.001 512.001" xml:space="preserve">
<g>
	<g>
		<path d="M87.772,299.886H65.829H43.886v131.657H21.943C9.826,431.544,0,441.368,0,453.486s9.826,21.943,21.943,21.943h43.886
			h80.457v-21.943v-21.943V299.886H87.772z"/>
	</g>
</g>
<g>
	<g>
		<path d="M490.057,431.544h-21.943V299.886h-21.943h-21.943h-58.514v131.657v21.943v21.943h80.457h43.886
			c12.12,0,21.943-9.825,21.943-21.943S502.179,431.544,490.057,431.544z"/>
	</g>
</g>
<g>
	<g>
		<path d="M510.11,225.145L451.596,93.487c-3.521-7.923-11.381-13.03-20.053-13.03h-65.829V58.515
			c0-12.118-9.823-21.943-21.943-21.943c-12.117,0-21.943,9.825-21.943,21.943v21.943H80.457c-8.672,0-16.53,5.107-20.051,13.03
			L1.892,225.145c-3.018,6.788-2.395,14.642,1.654,20.871c4.045,6.227,10.97,9.985,18.397,9.985h21.943h21.943h21.943h58.514
			v-21.943c0-6.908,3.253-13.41,8.777-17.554l5.851-4.389l81.92-61.44c7.803-5.851,18.533-5.851,26.333,0l81.92,61.44l5.851,4.389
			c5.525,4.144,8.777,10.647,8.777,17.554v21.943h58.514h21.943h21.943h21.943c7.428,0,14.352-3.758,18.4-9.985
			C512.505,239.786,513.127,231.932,510.11,225.145z"/>
	</g>
</g>
<g>
	<g>
		<path d="M307.202,234.058l-29.257-21.943L256,195.658l-21.943,16.457L204.8,234.058l-14.629,10.971v10.971v175.543v21.943v21.943
			h43.886v-21.943v-21.943v-21.952c0-12.12,9.826-21.943,21.943-21.943c12.121,0,21.944,9.823,21.944,21.943v21.952v21.943v21.943
			h43.886v-21.943v-21.943V256.001v-10.971L307.202,234.058z"/>
	</g>
</g>
</svg>